<?xml version="1.0" encoding="utf-8"?>
<!-- Generator: Adobe Illustrator 24.1.1, SVG Export Plug-In . SVG Version: 6.00 Build 0)  -->
<svg version="1.1" id="Layer_1" xmlns="http://www.w3.org/2000/svg" xmlns:xlink="http://www.w3.org/1999/xlink" x="0px" y="0px"
	 viewBox="0 0 512 512" style="enable-background:new 0 0 512 512;" xml:space="preserve">
<style type="text/css">
	.st0{fill:#1A1918;}
	.st1{fill:#FFFFFF;}
</style>
<g>
	<path class="st0" d="M157.2,511.6c-0.9,0-1.8-0.2-2.5-1.1l-28.4-37.3v38h-6.5v-46.8c0-1.9,1.5-3.4,3.3-3.4c1,0,1.9,0.3,2.6,1.2
		l28.3,37.2v-37.9h6.5v46.8C160.5,510.2,159,511.6,157.2,511.6"/>
	<path class="st0" d="M210.7,512c-6.5,0-13.2-1.3-19.5-3.7l1.5-5.4c5.8,1.9,12.1,3.2,18,3.2c8.2,0,12.4-2.9,12.4-7
		c0-3.7-3.3-5.6-14.7-11c-11.4-5.4-15.9-8.8-15.9-15.5c0-8.4,6.5-11.9,18.7-11.9c5.1,0,12.9,1,17.3,2.4l-1,5.5
		c-4.9-1.2-11.1-2-16.2-2c-8.6,0-12.1,1.6-12.1,5.7c0,4,2.6,5.7,14.6,11.3c12.7,5.9,15.9,8.9,15.9,15
		C229.8,507.6,221.4,512,210.7,512"/>
	<rect x="260.4" y="461.5" class="st0" width="6.7" height="49.7"/>
	<path class="st0" d="M324,488.7h-16.6v16.9H324c5.7,0,9.1-3.6,9.1-8.6C333.1,492.2,329.5,488.7,324,488.7 M320.8,467.2h-13.4v15.9
		h13.4c5.4,0,9.3-3.4,9.3-8.2C330,470.2,326.7,467.2,320.8,467.2 M324.1,511.2h-20c-1.9,0-3.4-1.5-3.4-3.4v-43
		c0-1.8,1.5-3.4,3.4-3.4h16.5c10.1,0,16.2,5,16.2,12.8c0,4.3-2.5,8.2-6.3,10.5c5.7,1.7,9.5,6.4,9.5,12.1
		C340,504.8,333.4,511.2,324.1,511.2"/>
	<path class="st0" d="M372.1,511.2c-1.8,0-3.3-1.6-3.3-3.4v-46.3h6.7v43.6H402v6H372.1z"/>
	<path class="st0" d="M447.6,512c-13.7,0-21.9-5.1-21.9-15.3c0-4.8,2.7-9.5,8-11.6c-4.3-2.7-6.5-6.5-6.5-10.7
		c0-9.2,7.1-13.7,20.5-13.7c4.5,0,10.8,0.5,16.1,1.7l-0.7,5.5c-5.6-0.9-10.8-1.4-15.9-1.4c-8.7,0-13.3,2.4-13.3,8.1
		c0,4.6,4.3,8.1,9.9,8.1h11.5c1.6,0,2.9,1.3,2.9,2.8c0,1.6-1.2,2.9-2.9,2.9H443c-6.5,0-10.6,3.2-10.6,8.1c0,7.2,6.7,9.4,15.1,9.4
		c4.6,0,10.7-0.6,15.7-1.8l1,5.4C459.4,511.1,453.1,512,447.6,512"/>
	<path class="st0" d="M70.1,470.8l11.7,29.3L64.2,486L70.1,470.8z M90.9,506.9l-18-44c-0.5-1.3-1.5-1.9-2.8-1.9s-2.4,0.7-2.9,1.9
		l-19.8,48.3h6.8l7.8-19.9l23.4,19.2c0.9,0.8,1.6,1.1,2.5,1.1c1.8,0,3.3-1.3,3.3-3.3C91.2,508,91.1,507.5,90.9,506.9z"/>
	<path class="st0" d="M464.5,208.1c0,114.9-93.2,208.1-208.1,208.1c-114.9,0-208.1-93.2-208.1-208.1C48.3,93.2,141.5,0,256.4,0
		C371.3,0,464.5,93.2,464.5,208.1"/>
	<path class="st1" d="M259.9,127.1l53.9,132.9L232.4,196L259.9,127.1z M355.6,290.7L272.7,91.3c-2.4-5.7-7.1-8.8-12.8-8.8
		c-5.7,0-10.8,3-13.2,8.8L155.8,310h31.1l36-90.2l107.4,86.8c4.3,3.5,7.4,5.1,11.5,5.1c8.1,0,15.2-6.1,15.2-14.9
		C357,295.4,356.5,293.1,355.6,290.7z"/>
</g>
</svg>
